<?xml version="1.0" encoding="utf-8"?>
<svg version="1.1" xmlns:xlink="http://www.w3.org/1999/xlink" width="300px" height="170px" xmlns="http://www.w3.org/2000/svg">
  <g transform="matrix(1 0 0 1 -195 -97 )">
    <path d="M 195 97  L 495 97  L 495 267  L 195 267  L 195 97  " fill-rule="nonzero" fill="#cccccc" stroke="none" />
    <path d="M 207 109  L 483 109  L 483 255  L 207 255  L 207 109  " fill-rule="nonzero" fill="#ffffff" stroke="none" />
    <path d="M 363.75 148  C 356.61 148  351 142.39  351 135.25  C 351 128.11  356.61 122.5  363.75 122.5  C 370.89 122.5  376.5 128.11  376.5 135.25  C 376.5 142.39  370.89 148  363.75 148  " fill-rule="nonzero" fill="#cccccc" stroke="none" />
    <path d="M 212 251  L 212 175.64999999999998  L 278.75 141.39999999999998  L 372.2 204.42000000000002  L 425.6 161.95  L 479 204.42000000000002  L 479 251  L 212 251  " fill-rule="nonzero" fill="#169bd5" stroke="none" />
  </g>
</svg>